<svg width="84" height="36" viewBox="0 0 84 36" fill="none" xmlns="http://www.w3.org/2000/svg">
<g clip-path="url(#clip0_4179_8846)">
<g clip-path="url(#clip1_4179_8846)">
<path d="M35.839 9.89467C35.5347 6.78139 32.76 4.50705 29.6476 4.81962C26.5467 5.13102 24.2826 7.89314 24.5858 10.9949C24.8891 14.0965 27.6452 16.3677 30.7478 16.073C33.8618 15.7768 36.1434 13.008 35.839 9.89467ZM31.6246 6.1248C31.6937 6.12461 31.7452 6.13864 31.8094 6.1561L31.8233 6.15988C31.8484 6.28589 31.8233 6.34445 31.7574 6.4517C31.642 6.63944 31.5136 6.81919 31.3852 6.99897C31.1586 7.3163 30.9319 7.6337 30.7766 7.99524C30.4399 8.7791 30.5183 9.69342 30.5976 10.6173C30.667 11.4259 30.737 12.2418 30.5299 12.984C30.2806 13.8769 29.655 14.4609 28.8716 14.8965C28.8282 14.9038 28.7803 14.9001 28.7342 14.8965C28.7246 14.8958 28.715 14.8951 28.7056 14.8944C28.6996 14.894 28.6937 14.8937 28.6879 14.8934L28.6803 14.8791C28.6357 14.7942 28.633 14.789 28.6653 14.6924C28.7073 14.5671 28.7907 14.4389 28.8694 14.318C28.8994 14.2719 28.9287 14.2268 28.9548 14.1834C29.2271 13.7297 29.4941 13.2396 29.5776 12.7101C29.6819 12.0489 29.6264 11.3685 29.5708 10.6881C29.5003 9.82472 29.4299 8.961 29.6861 8.13689C30.0008 7.12431 30.7377 6.59614 31.6246 6.1248Z" fill="#0B0803"/>
<path d="M49.1508 26.3191C48.7978 23.297 46.0619 21.133 43.0398 21.485C40.0162 21.8369 37.8506 24.5738 38.2037 27.5975C38.5569 30.6213 41.2948 32.7857 44.3182 32.4317C47.3403 32.0777 49.5038 29.3413 49.1508 26.3191ZM43.0482 22.7518C43.7793 22.6977 44.4632 22.8758 45.053 23.3143C46.0074 24.0239 46.4942 25.1967 46.6555 26.3449C46.8262 27.5566 46.8094 29.2394 46.0199 30.2541C45.5892 30.8072 45.0446 31.032 44.3702 31.1145C43.6517 31.1838 42.9327 30.991 42.3454 30.5724C41.4171 29.9028 40.9407 28.8024 40.7678 27.7C40.5708 26.4441 40.5781 24.6867 41.3917 23.6274C41.8246 23.0638 42.3654 22.8395 43.0482 22.7518Z" fill="#0B0803"/>
<path d="M17.756 0.275559C18.7365 0.146984 19.8464 0.247829 20.8003 0.488436C21.3805 0.634764 21.9594 0.833772 22.5525 0.917231C22.8936 0.965184 23.2514 0.961348 23.5955 0.967388C23.6512 1.9223 23.8354 4.21051 23.7251 5.0516C23.5494 5.08569 23.4144 5.07613 23.2377 5.05208C23.0567 4.84283 22.9716 4.37448 22.8629 4.10315C22.464 3.10811 21.6754 2.34353 20.6866 1.93795C19.4475 1.42969 17.9679 1.49503 16.7466 2.02262C15.4639 2.57674 14.4188 3.68575 13.9094 4.98474C13.1204 6.99678 13.1259 9.57764 14.0112 11.5582C14.6245 12.9304 15.7155 14.1375 17.1432 14.6732C18.5061 15.1846 19.9872 15.0334 21.2927 14.4352C21.8756 14.1378 22.4146 13.6956 22.7614 13.1351C22.9576 12.818 23.1018 12.2153 23.413 12.0105L23.4996 12.0449C23.834 12.4674 23.9585 13.7885 24.0684 14.3569C22.8101 15.4659 21.2921 16.2012 19.6236 16.4207C17.4399 16.7075 15.161 16.2668 13.3965 14.9052C11.7903 13.6657 10.8147 11.7182 10.5735 9.72239C10.2932 7.40315 10.8053 5.06253 12.2732 3.21657C13.6259 1.51562 15.6155 0.521155 17.756 0.275559Z" fill="#0B0803"/>
<path d="M58.7648 5.78423C58.1803 5.63869 57.4728 5.56012 56.8735 5.63443C55.4748 5.77183 54.2789 6.31108 53.3702 7.40781C52.3634 8.63642 51.8854 10.2143 52.0403 11.7951C52.1795 13.1427 52.7993 14.4826 53.8745 15.335C55.0037 16.2311 56.5993 16.4837 58.0006 16.3178C59.2449 16.1707 60.3478 15.6334 61.1194 14.6289C61.4724 14.1699 61.7287 13.6511 61.9309 13.1107C61.9061 13.0873 61.8815 13.063 61.8566 13.0386C61.7374 12.9214 61.6144 12.8004 61.454 12.7517C61.4398 12.7581 61.4276 12.7633 61.4168 12.7678C61.368 12.7884 61.3484 12.7967 61.308 12.8581C60.6425 13.8378 59.8799 14.4863 58.6887 14.709C57.7601 14.8826 56.8372 14.7228 56.0583 14.1763C55.4386 13.7414 54.9496 13.0994 54.6633 12.4009C56.0878 11.5563 57.6361 10.7014 59.2748 10.3657C59.5992 10.2993 59.9299 10.262 60.2596 10.2248C60.6063 10.1857 60.9518 10.1467 61.2875 10.0741C61.5128 10.0254 61.6746 9.97963 61.7513 9.74086C61.943 9.14174 61.6405 8.16287 61.3384 7.64658C60.7864 6.7018 59.8169 6.046 58.7648 5.78423ZM57.3157 6.73746C57.582 6.73904 57.8672 6.7579 58.1235 6.8287C58.5574 6.94834 58.9503 7.20539 59.1619 7.61176C59.3085 7.89296 59.423 8.34382 59.3079 8.6515C59.2113 8.9098 59.0023 9.08633 58.7711 9.22289C58.4827 9.39287 58.1372 9.50223 57.8045 9.60752C57.6913 9.64333 57.5797 9.67867 57.4723 9.71577C56.8908 9.91661 56.3178 10.1357 55.7637 10.4038C55.637 10.4601 55.4769 10.5613 55.3063 10.669C54.9859 10.8714 54.6287 11.097 54.3871 11.0931C54.2579 10.985 54.2248 10.8952 54.2112 10.7328C54.1213 9.65531 54.5552 8.42969 55.2521 7.61512C55.7626 7.01888 56.5637 6.79844 57.3157 6.73746Z" fill="#0B0803"/>
<path d="M69.2405 5.68141C68.8266 5.62468 68.4075 5.60887 67.9905 5.63419C66.5713 5.74995 65.3712 6.26762 64.4426 7.37248C63.421 8.596 62.9305 10.1771 63.0801 11.7642C63.2051 13.0787 63.8191 14.423 64.8544 15.2671C65.9689 16.176 67.6318 16.4869 69.0346 16.3278C70.2831 16.1865 71.405 15.5998 72.1844 14.6087C72.5431 14.1487 72.8242 13.6328 73.0158 13.0815C72.9916 13.0605 72.9663 13.0375 72.9401 13.0136C72.8102 12.8951 72.6574 12.7559 72.4948 12.7429C71.8267 13.7491 71.0268 14.4571 69.8146 14.7015C68.9012 14.8858 68.0146 14.7513 67.2305 14.2309C66.5577 13.7842 66.0682 13.1336 65.7194 12.4129C67.2594 11.3652 69.1539 10.5627 70.9848 10.224C71.2119 10.1819 71.4426 10.1641 71.6732 10.1463C71.8641 10.1315 72.0549 10.1168 72.2437 10.0883C72.4896 10.0512 72.7391 9.99499 72.7942 9.714C72.9492 8.92153 72.6366 7.9683 72.1687 7.33115C71.4628 6.36988 70.4055 5.84349 69.2405 5.68141ZM67.8881 6.77598C68.3655 6.73817 68.8303 6.71464 69.2904 6.88297C69.7316 7.04427 70.0872 7.3625 70.2789 7.79377C70.4055 8.07766 70.4606 8.39552 70.3408 8.69133C70.2726 8.8583 70.1476 9.00999 70.0026 9.11608C69.6557 9.3695 68.799 9.66852 68.0538 9.92864C67.6865 10.0568 67.3463 10.1756 67.1075 10.2748C66.7245 10.4455 66.3554 10.6527 65.987 10.8594C65.7826 10.9741 65.5784 11.0887 65.3722 11.1969C65.1994 10.1416 65.3076 9.06603 65.8822 8.14095C66.357 7.37731 67.0261 6.97342 67.8881 6.77598Z" fill="#0B0803"/>
<path d="M32.5195 18.342C33.6491 18.3357 36.8224 18.1949 37.6783 18.4208C37.7501 18.519 37.7433 18.5206 37.7345 18.643C37.5366 18.9765 37.1143 19.1104 36.8215 19.3494C36.6524 19.487 36.4998 19.6834 36.4487 19.8988C36.2597 20.6961 36.3343 21.6178 36.3336 22.4367L36.3112 25.8948C36.3053 26.7199 36.331 27.5634 36.2343 28.3828C36.096 29.5561 35.5781 30.6465 34.6301 31.3771C33.4484 32.2884 31.7988 32.4911 30.3545 32.2952C29.0895 32.124 27.8554 31.5761 27.0689 30.5378C26.3553 29.596 26.1746 28.4962 26.326 27.3449C26.3659 27.1417 26.4169 26.9452 26.4898 26.7509C26.759 26.0334 27.2855 25.4436 27.9958 25.139C28.7459 24.8175 29.6918 24.7939 30.4455 25.1185C30.8123 25.276 31.0434 25.5476 31.1782 25.9231C31.2607 26.1526 31.2878 26.3491 31.1824 26.5723C30.8785 26.8596 30.1947 26.4746 29.7699 26.5938C29.3778 26.7036 29.0781 26.9783 28.8904 27.3344C28.5646 27.9526 28.5569 28.7604 28.7898 29.4106C28.9974 29.9905 29.4679 30.4585 30.0221 30.7148C30.68 31.0189 31.605 31.095 32.2924 30.8393C32.8248 30.6412 33.2159 30.2179 33.4306 29.6979C33.6157 29.2499 33.7024 28.7347 33.746 28.2541C33.8443 27.1711 33.9661 20.6299 33.7275 19.9224C33.4758 19.1761 32.6177 19.154 32.4211 18.6997C32.4212 18.5899 32.4236 18.5138 32.4765 18.4176C32.4904 18.3919 32.5052 18.3672 32.5195 18.342Z" fill="#0B0803"/>
<path d="M55.8574 30.46C56.339 29.2678 56.755 28.0393 57.1988 26.8318C57.5449 25.8916 57.9724 24.9189 58.1846 23.9404C58.2298 23.7319 58.2498 23.5255 58.1915 23.3175C58.0134 22.682 57.1935 22.7329 57.0081 22.2418C57.0339 22.1341 57.0186 22.0874 57.1216 22.0212C57.3112 21.8999 60.6584 21.8873 61.0687 21.9393C61.2052 21.9566 61.3024 21.9871 61.3922 22.0969C61.4016 22.3327 61.3444 22.4404 61.1322 22.5606C60.7919 22.7529 60.3585 22.8511 60.1033 23.1673C59.7015 23.6652 58.1883 27.9258 57.8149 28.8943L56.5669 32.1318C56.2528 32.9449 55.9587 33.8289 55.4913 34.5684C55.2082 35.0159 54.8269 35.4492 54.3647 35.7155C53.6903 36.1031 52.8352 36.1745 52.0899 35.9649C51.5106 35.8016 50.9806 35.4429 50.7033 34.8972C50.4838 34.4654 50.4297 33.8908 50.5909 33.4307C50.7112 33.0878 50.989 32.8036 51.3199 32.656C51.5342 32.561 51.8845 32.478 52.1062 32.5982C52.6335 32.885 52.29 33.832 52.4922 34.3373C52.5605 34.5069 52.6603 34.6267 52.8336 34.6965C53.1157 34.81 53.6052 34.6545 53.8594 34.5311C54.7187 34.1119 55.0795 32.7611 55.3652 31.927C55.0044 31.9338 54.5873 31.978 54.2318 31.916C54.1766 31.9065 54.1073 31.8918 54.0579 31.8629C53.9403 31.7946 53.8646 31.6707 53.8037 31.552C53.5232 31.0052 53.3331 30.3697 53.1141 29.7941L51.7501 26.2047C51.4817 25.4993 51.238 24.764 50.9087 24.0854C50.6629 23.5796 50.3351 23.0628 49.8298 22.7833C49.5793 22.6452 49.2495 22.6468 49.0798 22.3957C49.0504 22.2245 49.0809 22.1205 49.1339 21.9566C50.0384 21.9199 53.6745 21.8253 54.3431 22.0112C54.3799 22.1389 54.3862 22.3154 54.3358 22.4409C54.2559 22.6394 53.872 22.7003 53.6955 22.7712C53.5049 22.8479 53.3399 22.9635 53.2659 23.1636C53.1845 23.3847 53.2932 23.7403 53.3567 23.9646C53.6335 24.9452 54.08 25.9158 54.4476 26.8701C54.9072 28.0624 55.3216 29.2998 55.8574 30.46Z" fill="#0B0803"/>
<path d="M49.4562 1.1661C50.2592 1.12424 51.0213 1.22682 51.7225 1.64711C52.2346 1.95384 52.6684 2.41546 52.7976 3.01264C52.868 3.33681 52.846 3.6801 52.6574 3.96167C52.4526 4.26741 52.0387 4.5057 51.6752 4.55124C51.4567 4.57855 51.2004 4.54877 51.0255 4.40743C50.6195 4.07938 50.8086 3.4959 50.7314 3.04704C50.6894 2.80544 50.5639 2.60213 50.3548 2.47119C50.0386 2.27281 49.5444 2.20726 49.1857 2.30679C48.8721 2.39366 48.6463 2.61541 48.5018 2.90129C48.0422 3.80883 48.2965 4.99501 48.5806 5.91279C49.5439 5.93669 50.5113 5.91725 51.4751 5.91636C51.4778 6.32525 51.4704 6.72731 51.4394 7.1351C50.5087 7.1341 49.5759 7.11997 48.6463 7.15547C48.5869 8.11181 48.61 9.08348 48.6042 10.042C48.5953 11.4766 48.454 13.0603 48.7828 14.4562C48.8327 14.5855 48.8879 14.7073 48.9551 14.829C49.245 15.3566 49.4236 15.3001 49.9394 15.4701C50.1153 15.5279 50.2172 15.5993 50.2939 15.7632C50.2871 15.9018 50.2655 15.9543 50.1836 16.0662C50.1379 16.0951 50.1195 16.1119 50.0596 16.1229C49.8727 16.1586 45.382 16.1392 45.1278 16.0972C44.9534 16.0678 44.8305 16.0294 44.7207 15.8813C44.7932 15.4575 45.2648 15.4874 45.5485 15.2132C45.8736 14.8992 46.0369 14.4781 46.1273 14.0431C46.3237 13.0962 46.2481 12.0234 46.2444 11.0565L46.226 7.14271L44.3893 7.13588C44.352 6.73167 44.3494 6.32362 44.3389 5.91799L46.1677 5.91704C46.0779 5.64345 45.9886 5.35925 45.9492 5.07327C45.8326 4.22812 46.0291 3.36922 46.5485 2.68443C47.2392 1.77416 48.35 1.30912 49.4562 1.1661Z" fill="#0B0803"/>
<path d="M41.8549 1.16721C42.5949 1.10492 43.3056 1.15886 43.9695 1.52242C44.4999 1.81298 44.9532 2.29225 45.116 2.88539C45.2169 3.25294 45.2279 3.71855 45.0199 4.05344C44.8728 4.29058 44.627 4.42934 44.3571 4.47992C44.1113 4.52604 43.7861 4.52546 43.5808 4.3607C43.1921 4.04876 43.4521 3.44901 43.3654 3.03586C43.3134 2.78706 43.1128 2.57603 42.8948 2.4567C42.5519 2.26861 42.0576 2.24576 41.6867 2.35732C41.3787 2.44992 41.146 2.65134 41.0048 2.93985C40.5952 3.77607 40.9059 5.05725 41.1868 5.88942C42.1091 5.9441 43.0519 5.90161 43.9773 5.90639C44.0004 6.31901 43.9794 6.72327 43.9547 7.13542C43.0156 7.13331 42.076 7.13668 41.1367 7.14539C41.0936 8.31975 41.0762 9.49489 41.0846 10.67C41.0814 11.8806 40.9608 13.2407 41.316 14.4083C41.7061 15.2632 42.5161 15.4073 42.7073 15.864C42.6779 15.9475 42.69 15.9617 42.6075 16.0105C42.3113 16.1875 37.8141 16.1529 37.412 16.0573C37.3965 16.0027 37.3759 15.9396 37.3739 15.8829C37.3618 15.5263 37.924 15.3765 38.14 15.1634C38.4408 14.8665 38.5894 14.3165 38.6592 13.907C38.8162 12.9865 38.7664 11.9721 38.7654 11.0395L38.7575 7.1433L36.9257 7.13552C36.898 6.72894 36.8983 6.32457 36.9001 5.91721C37.4844 5.92361 38.0687 5.92293 38.653 5.91521C38.5626 5.61762 38.4672 5.31881 38.4213 5.01051C38.2964 4.17198 38.4787 3.34359 38.9913 2.66195C39.6801 1.74617 40.7522 1.32189 41.8549 1.16721Z" fill="#0B0803"/>
</g>
</g>
<defs>
<clipPath id="clip0_4179_8846">
<rect width="84" height="36" fill="white"/>
</clipPath>
<clipPath id="clip1_4179_8846">
<rect width="62.5159" height="35.861" fill="white" transform="translate(10.5 0.21936)"/>
</clipPath>
</defs>
</svg>
