<svg xmlns="http://www.w3.org/2000/svg" aria-hidden="true" style="position:absolute;width:0;height:0;overflow:hidden">
  <defs>
    <symbol id="icon-chevrons-right" viewBox="0 0 32 32">
      <path d="M13.728 10.28 19.495 16l-5.767 5.72 1.877 1.893L23.281 16l-7.676-7.613z"/>
      <path d="M8.939 8.387 7.062 10.28 12.829 16l-5.767 5.72 1.877 1.893L16.615 16z"/>
    </symbol>
    <symbol id="icon-close" viewBox="0 0 32 32">
      <path d="m21.589 8.459-5.657 5.656-5.656-5.656-1.885 1.885L14.047 16l-5.656 5.656 1.885 1.885 5.656-5.656 5.657 5.656 1.885-1.885L17.818 16l5.656-5.656z"/>
    </symbol>
    <symbol id="icon-envelope" viewBox="0 0 32 32">
      <path d="M26.667 5.333H5.334A2.67 2.67 0 0 0 2.667 8v16a2.67 2.67 0 0 0 2.667 2.667h21.333A2.67 2.67 0 0 0 29.334 24V8a2.67 2.67 0 0 0-2.667-2.667m0 2.667v.681L16 16.978 5.333 8.682v-.683h21.333zM5.333 24V12.059l9.848 7.66a1.33 1.33 0 0 0 1.638 0l9.848-7.66L26.67 24H5.334z"/>
    </symbol>
    <symbol id="icon-Facebook" viewBox="0 0 32 32">
      <path d="M29.333 16.405C29.333 8.996 23.364 2.99 16 2.99S2.667 8.996 2.667 16.405c0 6.696 4.876 12.245 11.25 13.252v-9.374h-3.385v-3.878h3.385V13.45c0-3.362 1.991-5.219 5.036-5.219 1.459 0 2.985.262 2.985.262v3.301h-1.681c-1.656 0-2.173 1.034-2.173 2.095v2.516h3.698l-.591 3.878h-3.107v9.374c6.374-1.006 11.25-6.556 11.25-13.252z"/>
    </symbol>
    <symbol id="icon-Instagram" viewBox="0 0 32 32">
      <path d="M15.998 6.161c3.206 0 3.585.014 4.846.071 1.172.052 1.804.248 2.226.412.558.216.961.478 1.378.895.422.422.679.82.9 1.378.164.422.361 1.059.412 2.226.056 1.266.071 1.645.071 4.847s-.014 3.585-.071 4.847c-.052 1.172-.248 1.804-.412 2.227a3.7 3.7 0 0 1-.895 1.377c-.422.422-.82.679-1.378.9-.422.164-1.06.361-2.226.412-1.266.056-1.645.071-4.847.071s-3.585-.014-4.847-.071c-1.172-.052-1.804-.248-2.226-.412a3.7 3.7 0 0 1-1.378-.895 3.8 3.8 0 0 1-.9-1.378c-.164-.422-.361-1.06-.412-2.226-.056-1.266-.071-1.645-.071-4.847s.014-3.585.071-4.847c.052-1.172.248-1.804.412-2.226.216-.558.478-.961.895-1.378.422-.422.82-.679 1.378-.9.422-.164 1.059-.361 2.226-.412 1.261-.056 1.641-.071 4.847-.071zm0-2.16c-3.258 0-3.665.014-4.945.071-1.275.056-2.151.262-2.91.558a5.85 5.85 0 0 0-2.127 1.387A5.9 5.9 0 0 0 4.629 8.14c-.295.764-.502 1.636-.558 2.91C4.015 12.335 4 12.742 4 15.999s.014 3.665.071 4.945c.056 1.275.262 2.151.558 2.91a5.9 5.9 0 0 0 1.387 2.127 5.9 5.9 0 0 0 2.123 1.383c.764.295 1.636.502 2.91.558 1.279.056 1.687.071 4.945.071s3.666-.014 4.945-.071c1.275-.056 2.151-.262 2.91-.558.787-.305 1.458-.717 2.123-1.383s1.078-1.336 1.383-2.123c.295-.764.502-1.635.558-2.91.056-1.279.071-1.687.071-4.945s-.014-3.665-.071-4.945c-.056-1.275-.262-2.151-.558-2.91a5.6 5.6 0 0 0-1.373-2.133 5.9 5.9 0 0 0-2.123-1.383c-.764-.295-1.635-.502-2.91-.558-1.284-.061-1.692-.075-4.949-.075L15.999 4z"/>
      <path d="M15.998 9.836a6.164 6.164 0 1 0 6.163 6.163 6.164 6.164 0 0 0-6.163-6.163m0 10.161a3.998 3.998 0 1 1 0-7.996 3.998 3.998 0 0 1 0 7.996M23.843 9.592a1.439 1.439 0 1 1-2.877 0 1.439 1.439 0 0 1 2.877 0"/>
    </symbol>
    <symbol id="icon-map" viewBox="0 0 32 32">
      <path d="M16 18.667c2.941 0 5.333-2.392 5.333-5.333S18.941 8.001 16 8.001s-5.333 2.392-5.333 5.333 2.392 5.333 5.333 5.333m0-8c1.471 0 2.667 1.196 2.667 2.667S17.471 16.001 16 16.001s-2.667-1.196-2.667-2.667 1.196-2.667 2.667-2.667"/>
      <path d="M15.227 29.085a1.33 1.33 0 0 0 1.546 0c.405-.287 9.932-7.165 9.893-15.752 0-5.881-4.785-10.667-10.667-10.667S5.332 7.451 5.332 13.326c-.039 8.593 9.488 15.472 9.893 15.759zM16 5.333c4.412 0 8 3.588 8 8.007.028 5.917-5.851 11.231-8 12.973-2.148-1.744-8.028-7.059-8-12.98 0-4.412 3.588-8 8-8"/>
    </symbol>
    <symbol id="icon-map-pin" viewBox="0 0 32 32">
      <path d="M16 22.667 17.333 20v-6.856c2.295-.596 4-2.667 4-5.144 0-2.941-2.392-5.333-5.333-5.333S10.667 5.059 10.667 8c0 2.477 1.705 4.548 4 5.144V20zM13.333 8c0-1.471 1.196-2.667 2.667-2.667S18.667 6.529 18.667 8 17.471 10.667 16 10.667 13.333 9.471 13.333 8"/>
      <path d="m21.689 14.084-.711 2.571c3.455.955 5.688 2.791 5.688 4.679 0 2.523-4.38 5.333-10.667 5.333S5.332 23.856 5.332 21.334c0-1.888 2.233-3.724 5.689-4.68l-.711-2.571c-4.716 1.304-7.645 4.081-7.645 7.251 0 4.485 5.857 8 13.333 8s13.333-3.515 13.333-8c0-3.169-2.929-5.947-7.644-7.249z"/>
    </symbol>
    <symbol id="icon-menu" viewBox="0 0 32 32">
      <path d="M5.333 8h21.333v2.667H5.333zm0 6.667h21.333v2.667H5.333zm0 6.666h21.333V24H5.333z"/>
    </symbol>
    <symbol id="icon-one" viewBox="0 0 32 32">
      <path d="m9.104 30.437 15.219-15.219L9.104-.001 5.333 3.77l11.448 11.448L5.333 26.666z"/>
    </symbol>
    <symbol id="icon-phone" viewBox="0 0 32 32">
      <path d="M23.61 16.391a1.34 1.34 0 0 0-.942-.391 1.33 1.33 0 0 0-.942.391l-2.125 2.125c-.985-.293-2.824-.96-3.989-2.125s-1.832-3.004-2.125-3.989l2.125-2.125a1.34 1.34 0 0 0 .391-.942 1.33 1.33 0 0 0-.391-.942L10.279 3.06a1.34 1.34 0 0 0-.942-.391 1.33 1.33 0 0 0-.942.391L4.779 6.676a2.66 2.66 0 0 0-.781 1.913c.031 1.899.533 8.493 5.731 13.691s11.792 5.699 13.692 5.731h.037c.704 0 1.369-.277 1.873-.781l3.616-3.616a1.34 1.34 0 0 0 .391-.942 1.33 1.33 0 0 0-.391-.942l-5.333-5.335zm-.17 8.949c-1.664-.028-7.357-.475-11.831-4.949C7.121 15.903 6.686 10.19 6.66 8.559l2.673-2.673 3.448 3.448-1.724 1.724a1.33 1.33 0 0 0-.362 1.216c.032.153.815 3.789 3.028 6.003s5.849 2.996 6.003 3.028a1.32 1.32 0 0 0 1.216-.361l1.725-1.724 3.448 3.448-2.675 2.673z"/>
    </symbol>
    <symbol id="icon-star-filled" viewBox="0 0 32 32">
      <path d="M14.761 4.816c.458-1.089 2.019-1.089 2.478 0l2.705 6.425c.193.459.63.772 1.132.812l7.021.556c1.19.094 1.672 1.561.766 2.328l-5.349 4.527a1.32 1.32 0 0 0-.432 1.314l1.634 6.769c.277 1.147-.986 2.053-2.004 1.439l-6.011-3.627a1.36 1.36 0 0 0-1.399 0l-6.011 3.627c-1.018.615-2.281-.292-2.004-1.439l1.634-6.769a1.32 1.32 0 0 0-.432-1.314l-5.35-4.527c-.906-.767-.424-2.234.766-2.328l7.021-.556c.502-.04.938-.353 1.132-.812l2.705-6.425z"/>
    </symbol>
    <symbol id="icon-star-outline" viewBox="0 0 32 32">
      <path stroke-width="1.333" d="M15.375 5.076c.229-.545 1.021-.545 1.25 0l2.704 6.424a2.01 2.01 0 0 0 1.694 1.219l7.021.556c.61.048.828.78.388 1.154l-5.35 4.527a1.99 1.99 0 0 0-.65 1.98l1.635 6.768c.133.549-.482 1.031-1.013.711h-.001l-6.009-3.626a2.03 2.03 0 0 0-2.089 0l-6.01 3.626c-.531.32-1.146-.162-1.013-.711l1.635-6.768a1.99 1.99 0 0 0-.65-1.98l-5.35-4.527a.656.656 0 0 1 .388-1.154l7.021-.556A2.01 2.01 0 0 0 12.67 11.5l2.704-6.424z"/>
    </symbol>
    <symbol id="icon-X" viewBox="0 0 32 32">
      <path d="M22.901 5.657h3.68l-8.04 9.037L28 26.991h-7.406l-5.801-7.458-6.637 7.458H4.474l8.6-9.666L4 5.657h7.594l5.243 6.817zM21.61 24.824h2.039L10.486 7.709H8.298z"/>
    </symbol>
  </defs>
</svg>
